<?xml version="1.0" encoding="UTF-8"?>
<svg id="Layer_3" data-name="Layer 3" xmlns="http://www.w3.org/2000/svg" viewBox="0 0 2000 254">
  <defs>
    <style>
      .cls-1 {
        stroke-dasharray: 24.64 32.86;
      }

      .cls-1, .cls-2, .cls-3, .cls-4, .cls-5 {
        fill: none;
        stroke: #616263;
        stroke-linecap: round;
        stroke-linejoin: round;
        stroke-width: 6px;
      }

      .cls-2 {
        stroke-dasharray: 23.38 31.18;
      }

      .cls-3 {
        stroke-dasharray: 24.41 32.54;
      }

      .cls-5 {
        stroke-dasharray: 23.45 31.27;
      }

      .cls-6 {
        fill: #909091;
        fill-rule: evenodd;
      }

      .cls-7 {
        opacity: .54;
      }

      .cls-8 {
        opacity: 0;
      }
    </style>
  </defs>
  <g class="cls-8">
    <path class="cls-6" d="M40.41,52.07h819.07M40.41,198.8h804.38M973.95,52.07h985.52M989.4,198.8h967.74"/>
    <g>
      <g>
        <line class="cls-4" x1="40.41" y1="52.07" x2="52.41" y2="52.07"/>
        <line class="cls-2" x1="83.59" y1="52.07" x2="831.89" y2="52.07"/>
        <line class="cls-4" x1="847.48" y1="52.07" x2="859.48" y2="52.07"/>
      </g>
      <g>
        <line class="cls-4" x1="40.41" y1="198.8" x2="52.41" y2="198.8"/>
        <line class="cls-1" x1="85.27" y1="198.8" x2="816.36" y2="198.8"/>
        <line class="cls-4" x1="832.79" y1="198.8" x2="844.79" y2="198.8"/>
      </g>
      <g>
        <line class="cls-4" x1="973.95" y1="52.07" x2="985.95" y2="52.07"/>
        <line class="cls-5" x1="1017.22" y1="52.07" x2="1931.83" y2="52.07"/>
        <line class="cls-4" x1="1947.47" y1="52.07" x2="1959.47" y2="52.07"/>
      </g>
      <g>
        <line class="cls-4" x1="989.4" y1="198.8" x2="1001.4" y2="198.8"/>
        <line class="cls-3" x1="1033.95" y1="198.8" x2="1928.87" y2="198.8"/>
        <line class="cls-4" x1="1945.14" y1="198.8" x2="1957.14" y2="198.8"/>
      </g>
    </g>
  </g>
  <g class="cls-7">
    <path class="cls-6" d="M985.17,168.92c.18-.17,2.91.94,2.91.94,1.1-2.39,2.36-4.26,3.45-6.64,1.09-2.04,5.15-11.95,3.44-12.69-4.61-2.02-8.89-3.34-13.32-5.87-1.19-.55-11.24-6.17-11.41-6-1.56.13-4.83,6.26-5.56,7.97-.56,1.54-1.5,4.45-1.2,6.19.94,3.82,3.97,6.67,7.03,8.47,3.57,1.99,7.64,4.86,11.4,6.34,1.03.37,2.22.92,3.25,1.29h0ZM962.82,158.83c-1.16-1.93-1.64-3.15-2.1-5.41-.31-1.39,1.22-6.88.53-6.89-1.38-.04-4.95,4.36-11.13,3.16-.51-.19-3.95-.97-4.12-.8s1.5,1.94,1.84,2.29c1.66,2.46,1.1,4,1.94,5.23.33.7,3.12-.61,4.66-.05,2.23.58,6.64,3.8,8.55,3.33.35,0-.15-.87-.15-.87h-.02ZM877.58,221.88c2.13-2.36,4.62-5.06,7.43-6.71,1.76-1.34,6.69-5.01,8.6-5.47,2.78-.62,2.87,2.32,2.83,4.05-.09,3.45-.75,15.52-1.82,16.88-1.08,1.7-7.04,5-9.13,5.63-1.92.81-4.88,1.6-6.56-.17-1.34-1.42-4.37-4.6-4.48-6.85.05-2.07,1.71-6,3.13-7.34h0v-.02ZM914.51,229.59c.36-.68,4.3-5.76,4.3-6.1-.17-.18-4.38-4.26-5.05-4.97-2.86-3.01-6.7-8.12-11.6-5.48-1.23.83-1.43,1.69-1.81,3.06-.54.85-1.29,3.25-.62,3.96.99,1.75,7.48,4.69,9.51,6.12,1.36.73,3.73,2.52,4.56,3.75.17.18.52-.16.7-.33h0ZM912.36,232.64c.19-.51,0-.35-.33-.7-3.03-2.84-6.58-5.87-10.87-6.85-2.57-.59-2.44.97-3.19,3.03-.38,1.37-1.67,4.27-1.18,5.5.65,1.4,3.18,4.06,4.01,5.29.34.35,2.17,2.99,2.51,3,.52-.16,4.78-4.54,5.49-5.21,1.42-1.34,2.49-2.7,3.56-4.05h0ZM884.51,240.89c-2.28,1.15-2.16,3.4-2.22,5.81.17.18.1,2.59.44,2.95.5.53,5.36-.38,6.06-.71,3.12-.61,7.31-2.23,9.95-4.06.59-.33.71-.78.38-1.37-.49-1.22-3.14-5.44-3.99-5.98-1.35-1.07-3.28.09-4.5.57-2.09.64-4.36,1.79-6.12,2.78h0ZM862.12,238.58c3.68,4.59,9.44,8.88,15.1,10.24.86.2.52-.16.71-.67.4-2.06,1.18-5.5.01-7.08-.83-1.23-6.03-7.07-7.77-6.77-.87.15-8.53,2.71-8.89,3.05.16.52.49.88.83,1.23h.01ZM859.89,211.75c-1.78,2.03-3.15,8.03-3.39,10.62-.07,2.76.18,6.22,1.32,8.84.49,1.22,9.97,1.64,11.04.29s3.17-9.07,3.57-11.13c.75-2.4-3.68-4.59-5.21-5.49-1.88-.91-3.75-1.83-5.45-2.91-.68-.36-1.19-.55-1.89-.22h.01ZM878.99,214.5c1.58-1.17,3.18-2.68,4.75-3.5,1.58-.82,7.18-3.78,7.39-5.33.2-1.2-1.14-2.62-1.98-3.51-2.87-2.67-7.95-6.25-11.54-7.9-1.03-.37-.86-.2-1.73.3-4.92,3.33-9.88,8.03-13.28,12.61-.36.68.33.7,1.18,1.24,3.4,2.16,12.04,8.43,15.21,6.1h0ZM925.42,215.19c2.13-2.36,4.07-3.87,8.83-7.37.53-.5.02-.69-.66-1.05-4.91-3.76-6.06-6.03-9.21-11.12-1.49-2.28-2.5-3.35-5.43-3.6-4.65-.29-7.08,0-11.87-1.86-3.76-1.48-8.34-4.54-11.74-6.7-.68-.36-2.44.97-2.97,1.48-3.51,2.33-7.19,4.13-10.87,6.28-1.05.66-.53.5.83,1.23,5.45,2.91,8.31,5.92,12.87,9.66,3.55,3.03,4.94,2.72,9.22,4.04,2.91.94,7.34,3.47,9.17,6.11.67.71,6.69,8.46,6.69,8.46.51.19,4.45-4.89,5.15-5.56h-.01ZM982.72,176.97c1.07-1.35,1.06-1.01-.98-2.1-7.82-4.69-15.63-9.73-23.64-13.92-7.15-3.99-7.42-.37-10.16,5.61-2.55,5.11-2.54,4.77-6.45,8.81-2.85,3.38-5.89,7.27-8.57,10.83-2.14,2.71-3.93,5.08-2.83,9.08s5.35,6.7,8.75,8.86c.34.35.68.36,1.03.37.87-.15,3.33-1.81,4.37-2.13.88-.49,7.16-3.09,7.34-3.26.53-.5-1.34-1.42-1.51-1.59-1.7-1.08-4.08-2.52-5.6-3.77-1.52-1.25-3.38-2.85-2.8-5.08.56-1.54,3.28-.09,4.31.29,3.58,1.65,6.46,3.97,9.86,6.13.35,0,1.53.9,1.88.91.69.02,2.26-.46,2.61-.8.52-.16,2.97-1.48,2.81-1.65-.14-1.21-9.62-8.37-10.81-9.26-.5-.53-1.84-2.29-.62-2.78,2.28-1.15,6.2.51,8.25,1.6,2.73,1.45,5.28,2.73,8.01,4.18.34.35,2.04,1.09,2.39,1.1,1.04.03,3.69-2.49,4.4-3.17-2.84-3.7-7.09-6.06-11-8.75-.85-.54-3.56-2.68-2.14-4.03,1.24-1.18,11.25,5.48,13.12,6.73.67.71,2.87,2.32,3.57,2.34.69.02,3.37-3.54,4.44-4.55h-.03ZM941.96,163.82c3.2-3.37,6.61-8.29,3.1-12.7-1.33-2.11-2.02-2.13-4.24-3.05-1.54-.56-16.25-6.12-16.77-5.96-.69-.02-3.42,5.26-3.96,6.11,0,.35-1.82,3.41-1.65,3.58,0,.35,1.03.37,1.19.55,3.26.95,6.17,1.89,9.43,2.49,1.72.39,2.22.92,2.69,2.83.42,3.64-2.16,3.4-4.74,2.81-1.55-.21-4.27-1.67-5.81-2.22-.35,0-4.95-2.03-5.3-2.04-.35.34-1.44,2.38-1.63,2.89-1.09,2.04-2.52,4.08-3.44,5.95-.35.34-.54.85-.03,1.04,0,0,4.95,2.37,5.63,2.74,1.19.55,3.59,1.3,4.08,2.52.66,1.05.46,2.26-1.1,2.39-3.8-.1-10.42-4.24-11.29-4.09-.51-.19-1.05.66-1.41,1-1.8,2.72-3.58,4.74-5.89,7.27-.89,1.19-.37,1.03.65,1.74,4.07,2.87,7.3,4.85,12.1,6.36,11.84,2.9,17.28-6.97,22.68-15.47,1.81-3.06,3.22-4.41,5.7-6.76h0v.02ZM960.67,128.56l-4.71-4.96c-2.02-2.13-3.69-4.24-5.35-6.7-.17-.18-1.75.99-2.11,1.33-7.37,4.64-14.79,11.01-20.5,17.77-1.43,1.69-.91,1.88.95,3.13,3.05,2.15,11.57,6.52,15.18,7.13,3.95.97,7.21,1.57,11.21.47,2.61-.8,4.75-3.5,6.2-5.88,1.81-3.06,3.14-7.69.62-10.69l-1.51-1.59h.02ZM987.68,132.54c-3.24-1.64-5.79-3.26-8.67-5.23-6.25-5.17-9.95-9.07-14.62-15.41-.5-.53-.49-.88-1.54-.56-2.96.79-5.75,2.09-8.55,3.4,3.59,8.04,9.65,14.07,16.06,19.76,5.23,4.8,19.05,11.21,26.08,12.94.34.35.35-.34.53-.5.22-1.89.89-7.58.76-9.13,0,0-9.2-4.73-10.05-5.27h0ZM978.6,122.98c3.71,3.55,6.41,5.69,11.01,8.06.68.36,7.85,3.66,8.03,3.49.35-.34-.71-5.72-1.04-6.42-3.29-13.04-13.8-20.22-27.15-18.32-2.42.28,8.14,12.13,9.15,13.19h0Z"/>
    <path class="cls-6" d="M892.84,28.34c.68.85,1.59,1.8,2.28,2.65,2.62,3.08,6.65,6,9.7,8.73,2.7,2.31,6.37,4.26,10.3,3.9,1.74-.28,4.19-2.11,5.46-3.14,1.38-1.25,6.12-6.33,5.74-7.85.1-.22-8.47-7.9-9.37-8.85-3.83-3.36-6.47-6.99-9.88-10.69-1.25-1.38-9.31,5.68-10.89,7.37-1.9,1.81-3.26,3.61-5.17,5.42,0,0,1.93,2.23,1.83,2.45h0ZM909.62,46.22s-.99-.18-.87.14c.18,1.96,4.66,5.08,5.92,7.01,1.03,1.28.7,4.35,1.46,4.43,1.43.39,2.71-.64,5.58.13.44.2,2.66,1.22,2.77,1s-1.75-3.22-2.09-3.64c-3.14-5.46-.14-10.26-.62-11.56-.24-.65-4.94,2.57-6.35,2.73-2.28.3-3.6.23-5.8-.24h0ZM877.62,147.29c-.81,1.78-3.99,4.62-5.93,5.34-2.16.62-6.16-1.21-7.94-2.02-2.22-1.02-2.44-4.07-2.29-6.15-.08-2.18,1.11-8.89,2.37-10.46.93-1.45,12.14-5.99,15.37-7.2,1.62-.6,4.43-1.46,4.75,1.36.18,1.96-1.7,7.82-2.39,9.92-.65,3.19-2.4,6.42-3.94,9.2h0ZM858.36,114.86c-.1.22-.3.67-.08.77,1.43.39,3.89,2.05,5.02,3.1,2.02,1.46,6.89,6.64,8.87,7.01.89.41,2.91-1.08,3.54-1.87,1.17-.81,1.92-1.27,2.31-2.7.9-5.49-5.18-7.47-8.95-9.19-.89-.41-6.11-3.07-6.34-3.17-.32.12-3.85,5.49-4.38,6.05h.01ZM856.17,117.88c-.93,1.45-1.87,2.91-2.68,4.68-.41.89-3.17,6.34-3.15,6.88.12.32,3.21,1.2,3.65,1.4,1.43.39,4.76,1.91,6.3,2.08,1.31.06,3.64-2.09,4.82-2.9,1.7-1.37,3.22-1.75,1.83-4-2.31-3.74-6.33-6.12-10-8.07-.44-.2-.34-.42-.77-.08h0ZM857.4,146.9c.37-1.98.72-4.5.64-6.69.06-1.31.53-3.51-.92-4.45-.79-.63-5.63-1.77-6.95-1.83-.66-.12-1.05.15-1.17.81-.88,3.09-1.05,7.57-.61,10.73-.08.77.63,5.66,1.3,5.96.44.2,2.71-.64,2.93-.54,2.27-.84,4.43-1.46,4.78-3.99h0ZM866.84,167.33c.44.2.89.41,1.43.39.2-.44.14-8.53,0-9.4-.28-1.74-7.48-4.77-8.92-5.15-1.88-.59-4.87,1.26-6.69,2.31-.43.34-.87.14-.41.89,3.12,4.92,9.05,8.97,14.58,10.97h0ZM892.94,160.74c.08-.77-.26-1.19-.82-1.72-1.57-1.26-3.04-2.73-4.52-4.21-1.35-1.15-4.86-4.64-6.88-3.15-1.82,1.05-8.44,5.54-9.37,6.99-.93,1.45,2.54,10.29,3.85,10.35,2.85.23,6.21-.65,8.79-1.62,2.37-1.07,7.61-4.31,8.95-6.65h0ZM884.15,143.57c-1.18,3.76,7.55,9.9,10.7,12.41.79.63,1.03,1.28,1.55.71,3.22-4.7,6.07-10.92,7.62-16.65.18-.99.41-.89-.28-1.74-2.72-2.86-7.76-6.5-11.21-8.35-1.11-.51-2.89-1.32-3.96-.74-1.4.7-2.38,6.97-2.65,8.72-.27,1.76-1.18,3.76-1.77,5.63h0ZM868.44,99.87c-.41.89-3.93,6.25-3.59,6.68,0,0,9.29,3.17,10.18,3.58,3.09.88,6.92,4.24,8.75,6.69,2.64,3.62,2.8,5.04,6.81,7.41,5.02,3.1,8.8,4.83,13.31,9.04,1.13,1.05,1.15,1.6,1.43.39.84-4.18,1.35-8.24,2.41-12.32.3-.67,1-2.77.43-3.29-3.15-2.51-7.52-5.86-10.14-8.93-3.3-3.93-3.82-6.31-5.61-10.62-1.19-2.69-2.52-3.3-5.16-3.97-5.84-1.33-8.36-1.68-13.51-5.1-.56-.53-.91-.95-1.21-.29-1.77,5.63-2.56,7.96-4.11,10.74h.01ZM886.02,33.27c-.61,1.33-3.1,5.02-2.86,5.67s2.48,2.21,3.37,2.61c1.8,1.36,11.34,8.67,10.62,10.23-.81,1.78-3.72-.09-4.5-.72-3.81-2.82-7.42-6.08-11.84-7.56-.41.89-1.93,4.22-1.57,5.19.12.32,1.37,1.7,1.81,1.9,2.26,2.11,4.29,4.11,6.55,6.22,1.69,1.58,4.54,4.76,4.19,7.28-.06,1.31-2.16.62-2.83.32-1.23-.83-11.07-7.48-12.27-7.22-.22-.1-.67,2.65-.65,3.19-.2.44-.15,2.08.09,2.73.12.32,1.35,1.15,1.47,1.48,3.15,2.51,6.27,4.48,8.99,7.34.68.85,2.94,2.96,1.67,3.98-1.92,1.27-4.04.03-5.72-1-1.67-1.03-3.81-2.82-5.39-4.07-.22-.1-1.69-1.58-2-.91-.1.22-.52,7.01-.71,8,.04,1.09-.74,3.96-.6,4.83.12.32.24.65.68.85,3.15,2.51,7.08,5.65,11.22,5.4,4.14-.25,5.81-2.71,7.67-5.62,2.49-3.69,5.19-7.83,7.46-11.62,2.56-5.01,2.23-4.88,6.24-8.96,4.76-4.54,8.1-5.96,2.01-11.43-6.55-6.22-13.85-11.97-20.83-17.85-1.69-1.58-1.37-1.7-2.3-.25h.03ZM911.68,67.56c-1.42,3.11-2.23,4.88-4.54,7.59-6.28,7.86-13.86,16.21-7.28,26.47,2.98,4.05,5.91,6.46,9.94,9.38,1.01.73,1.03,1.27,1.86.04,1.64-3.01,2.98-5.35,4.97-7.93.2-.44.83-1.23.49-1.66-.14-.87-6.21-5.79-7.53-9.35-.38-1.52.69-2.1,1.9-1.81,1.31.06,2.8,2.09,3.71,3.04.56.53,4.41,4.44,4.41,4.44.34.42.77.08.97-.36,1.48-1.47,2.94-3.49,4.52-5.18.42-.34,2-2.04,2.21-2.48-.12-.32-3.53-4.03-3.65-4.35-1.03-1.28-3.29-3.38-3.99-4.78-1.39-2.25-2.45-4.61,1.12-5.39,1.96-.18,2.63.13,3.55,1.62,1.63,2.89,3.46,5.34,5.42,8.12.22.1.58,1.07.91.95.22.1,2.53-2.6,2.86-2.72.63-.79,4.74-5.08,4.5-5.73-.02-.55-10.05-12.65-11.08-13.93-1.59-1.8-1.83-2.45-4.26-3.02-5.31-1.89-8.86,2.93-11.01,7.05h0ZM938.96,38.43l-2-.91c-3.65-1.4-7.6,1.36-9.91,4.06-1.78,2.14-3.65,5.04-3.55,7.77.25,4.14,1.88,7.04,4.08,10.46,1.75,3.22,8.65,9.86,11.67,12.05,1.8,1.36,2.14,1.78,3.27-.11,4.54-7.59,8.16-16.67,10.16-25.15.2-.44.79-2.32.57-2.42-2.87-.77-5.41-1.67-8.08-2.89l-6.22-2.84h0v-.02ZM926.43,14.17c-.79-.63-8.25-7.8-8.25-7.8-1.52.38-6.67,2.85-8.39,3.68-.1.22-.75.46-.3.67,3.92,6.09,14.47,17.09,20.7,20.48,7.47,4.22,15.13,8,23.9,8.79.33-3.07.66-6.14.45-9.19-.04-1.09-.36-.97-1.03-1.28-7.51-2.36-12.4-4.6-19.32-8.84-2.8-2.09-5.16-3.97-7.76-6.5h0ZM938.42,19.66c1.33.61,15.97,6.77,15.45,4.38-2.53-13.24-12.74-20.86-26.14-19.74-.77-.08-6.2.65-6.41,1.1-.1.22,5.34,5.93,5.9,6.46,3.73,3.59,6.63,5.45,11.2,7.81h0Z"/>
  </g>
  <g>
    <path d="M126.36,113.58c.34-1.83.51-3.73.51-5.69,0-3.83-.68-7.01-2.05-9.52-1.36-2.51-3.22-4.52-5.56-6.01-2.34-1.49-5.03-2.51-8.05-3.07-3.03-.55-6.2-.83-9.52-.83-2.05,0-4.39.15-7.03.45s-5.35.77-8.12,1.41c-2.77.64-5.52,1.47-8.24,2.49-2.73,1.02-5.13,2.3-7.22,3.83-2.09,1.53-3.79,3.35-5.11,5.43-1.32,2.09-1.98,4.45-1.98,7.09,0,2.3.83,4.28,2.49,5.94s3.79,3.09,6.39,4.28,5.52,2.17,8.76,2.94c3.24.77,6.43,1.43,9.59,1.98,3.15.56,6.09.98,8.82,1.28s4.9.58,6.52.83c2.05.34,4.54.75,7.48,1.21,2.94.47,5.99,1.09,9.14,1.85,3.15.77,6.28,1.71,9.39,2.81,3.11,1.11,5.9,2.45,8.37,4.03s4.47,3.41,6.01,5.5c1.53,2.09,2.3,4.5,2.3,7.22,0,2.9-.79,5.45-2.36,7.67-1.58,2.22-3.66,4.15-6.26,5.82-2.6,1.66-5.5,3.03-8.69,4.09-3.2,1.07-6.43,1.94-9.71,2.62s-6.41,1.15-9.39,1.41c-2.98.26-5.5.38-7.54.38-9.03,0-17.98-.75-26.84-2.24s-17.51-3.9-25.95-7.22c-.85-.34-1.83-.75-2.94-1.21-1.11-.47-2.26-.96-3.45-1.47-1.19-.51-2.34-.94-3.45-1.28s-2.09-.55-2.94-.64c.51-.51,1.3-1.23,2.36-2.17s2.13-1.96,3.2-3.07c1.06-1.11,2.05-2.15,2.94-3.13.89-.98,1.43-1.73,1.6-2.24,7.5,4.6,15.7,8.01,24.61,10.23,8.9,2.22,17.75,3.32,26.52,3.32,1.45,0,3.73-.11,6.84-.32,3.11-.21,6.22-.66,9.33-1.34s5.84-1.64,8.18-2.88c2.34-1.23,3.52-2.88,3.52-4.92,0-2.73-1.21-4.9-3.64-6.52-2.43-1.62-5.65-2.96-9.65-4.03-4.01-1.06-8.56-1.92-13.68-2.56-5.11-.64-10.33-1.34-15.66-2.11s-10.55-1.68-15.66-2.75c-5.11-1.06-9.67-2.51-13.68-4.35-4.01-1.83-7.22-4.15-9.65-6.97s-3.64-6.35-3.64-10.61c0-4.52.91-8.52,2.75-12.02,1.83-3.49,4.3-6.56,7.41-9.2s6.65-4.86,10.61-6.65c3.96-1.79,8.09-3.24,12.4-4.35,4.3-1.11,8.58-1.92,12.85-2.43,4.26-.51,8.18-.77,11.76-.77,5.96,0,11.63.47,17,1.41s10.03,2.64,14,5.11c3.96,2.47,7.11,5.92,9.46,10.35,2.34,4.43,3.52,10.14,3.52,17.13,0,1.71-.06,3.37-.19,4.99-.13,1.62-.28,3.28-.45,4.99h-19.43c.43-1.87.81-3.73,1.15-5.56l-.05.04Z"/>
    <path d="M205.22,171.93c1.45-.43,2.34-1.39,2.68-2.88s.55-2.83.64-4.03c-3.83,1.19-7.71,2.09-11.63,2.68-3.92.6-7.84.89-11.76.89-2.56,0-5.6-.21-9.14-.64s-6.9-1.23-10.1-2.43c-3.2-1.19-5.92-2.85-8.18-4.99-2.26-2.13-3.39-4.94-3.39-8.44,0-2.98,1.09-5.54,3.26-7.67s4.96-3.9,8.37-5.3c3.41-1.41,7.24-2.49,11.5-3.26,4.26-.77,8.44-1.36,12.53-1.79s7.92-.68,11.5-.77c3.58-.08,6.39-.17,8.44-.26,0-1.19.02-2.34.06-3.45s.06-2.26.06-3.45c0-2.13-.38-3.98-1.15-5.56-.77-1.58-1.81-2.88-3.13-3.9-1.32-1.02-2.88-1.77-4.67-2.24s-3.66-.7-5.62-.7-3.9.26-6.07.77-4.24,1.28-6.2,2.3c-1.96,1.02-3.66,2.32-5.11,3.9-1.45,1.58-2.34,3.39-2.68,5.43l-16.11-2.17c1.53-3.92,3.66-7.24,6.39-9.97s5.82-4.94,9.27-6.65c3.45-1.7,7.14-2.96,11.06-3.77s7.84-1.21,11.76-1.21,7.39.47,10.93,1.41c3.54.94,6.69,2.36,9.46,4.28s4.99,4.37,6.65,7.35c1.66,2.98,2.49,6.52,2.49,10.61,0,4.35-.06,8.67-.19,12.97s-.19,8.63-.19,12.97v4.15c0,2,.06,4.09.19,6.26s.32,4.18.58,6.01.64,3,1.15,3.52h-23.65v.03ZM171.73,152.12c0,1.28.68,2.26,2.05,2.94,1.36.68,2.96,1.21,4.79,1.6,1.83.38,3.64.62,5.43.7,1.79.09,3.07.13,3.83.13,3.58,0,7.2-.26,10.86-.77,3.66-.51,7.2-1.32,10.61-2.43.08-1.53.15-3.07.19-4.6.04-1.53.06-3.02.06-4.47l-3.32-.13c-.77,0-2.15.02-4.15.06s-4.28.13-6.84.26c-2.56.13-5.22.34-7.99.64s-5.3.7-7.61,1.21-4.2,1.17-5.69,1.98-2.24,1.77-2.24,2.88h.02Z"/>
    <path d="M314.59,131.03c0,5.88-.28,11.72-.83,17.51-.56,5.8-.83,11.63-.83,17.51,0,1.96.13,3.88.38,5.75h-22.37c.85-1.36,1.49-3.64,1.92-6.84.43-3.2.75-6.6.96-10.23.21-3.62.34-7.11.38-10.48s.06-5.94.06-7.73c0-5.2-1.28-9.27-3.83-12.21-2.56-2.94-6.52-4.41-11.89-4.41-1.79,0-3.52.32-5.18.96s-3.24,1.47-4.73,2.49c-1.49,1.02-2.9,2.17-4.22,3.45s-2.49,2.56-3.52,3.83c-.26,7.41-.38,14.83-.38,22.24v3.51c0,1.75.04,3.6.13,5.56.08,1.96.21,3.77.38,5.43.17,1.66.47,2.66.89,3h-22.62c.34-.51.68-1.77,1.02-3.77.34-2,.64-4.39.89-7.16.26-2.77.47-5.73.64-8.88.17-3.15.32-6.18.45-9.08.13-2.9.21-5.45.26-7.67.04-2.21.06-3.75.06-4.6,0-.68-.02-2.11-.06-4.28s-.15-4.43-.32-6.77c-.17-2.34-.45-4.49-.83-6.46-.38-1.96-.96-3.07-1.73-3.32l22.37.13-.38,6.14c3.15-2.3,6.67-4.2,10.55-5.69,3.88-1.49,7.82-2.24,11.82-2.24s7.73.41,11.44,1.21c3.71.81,6.97,2.17,9.78,4.09s5.07,4.41,6.77,7.48c1.7,3.07,2.56,6.9,2.56,11.5v.03Z"/>
    <path d="M355.55,137.35c-.17,4.39-.26,8.76-.26,13.1,0,1.45.3,2.68.89,3.71.6,1.02,1.38,1.85,2.36,2.49.98.64,2.09,1.09,3.32,1.34,1.23.26,2.49.38,3.77.38,1.62,0,3.22-.13,4.79-.38,1.58-.26,3.13-.6,4.67-1.02l-2.05,13.68c-4.94,0-9.59-.15-13.93-.45-4.35-.3-8.14-1.21-11.38-2.75-3.24-1.53-5.8-3.98-7.67-7.35-1.88-3.37-2.81-8.12-2.81-14.25,0-3.58.11-7.18.32-10.8.21-3.62.49-7.22.83-10.8l-18.92.13.89-12.53c3.07.26,6.18.41,9.33.45s6.31.06,9.46.06c.17-2.47.3-4.88.38-7.22.08-2.34.13-4.75.13-7.22v-3.07c0-1.53-.09-3.13-.26-4.79-.17-1.66-.43-3.17-.77-4.54-.34-1.36-.81-2.17-1.41-2.43l23.52.38c-.34,0-.6.26-.77.77-.17.51-.34.89-.51,1.15-.51,1.62-.92,3.58-1.21,5.88-.3,2.3-.56,4.71-.77,7.22s-.38,4.94-.51,7.29c-.13,2.34-.24,4.41-.32,6.2,2.9-.17,5.84-.32,8.82-.45,2.98-.13,5.92-.53,8.82-1.21v13.8l-18.28.13c-.17,4.35-.34,8.71-.51,13.1h.04Z"/>
    <path d="M431.28,171.93c1.45-.43,2.34-1.39,2.68-2.88s.55-2.83.64-4.03c-3.83,1.19-7.71,2.09-11.63,2.68-3.92.6-7.84.89-11.76.89-2.56,0-5.6-.21-9.14-.64s-6.9-1.23-10.1-2.43c-3.2-1.19-5.92-2.85-8.18-4.99-2.26-2.13-3.39-4.94-3.39-8.44,0-2.98,1.09-5.54,3.26-7.67s4.96-3.9,8.37-5.3c3.41-1.41,7.24-2.49,11.5-3.26,4.26-.77,8.44-1.36,12.53-1.79s7.92-.68,11.5-.77c3.58-.08,6.39-.17,8.44-.26,0-1.19.02-2.34.06-3.45s.06-2.26.06-3.45c0-2.13-.38-3.98-1.15-5.56s-1.81-2.88-3.13-3.9c-1.32-1.02-2.88-1.77-4.67-2.24s-3.66-.7-5.62-.7-3.9.26-6.07.77-4.24,1.28-6.2,2.3c-1.96,1.02-3.66,2.32-5.11,3.9-1.45,1.58-2.34,3.39-2.68,5.43l-16.11-2.17c1.53-3.92,3.66-7.24,6.39-9.97s5.82-4.94,9.27-6.65c3.45-1.7,7.14-2.96,11.06-3.77,3.92-.81,7.84-1.21,11.76-1.21s7.39.47,10.93,1.41c3.54.94,6.69,2.36,9.46,4.28s4.99,4.37,6.65,7.35c1.66,2.98,2.49,6.52,2.49,10.61,0,4.35-.06,8.67-.19,12.97s-.19,8.63-.19,12.97v4.15c0,2,.06,4.09.19,6.26s.32,4.18.58,6.01c.26,1.83.64,3,1.15,3.52h-23.65v.03ZM397.79,152.12c0,1.28.68,2.26,2.05,2.94,1.36.68,2.96,1.21,4.79,1.6,1.83.38,3.64.62,5.43.7,1.79.09,3.07.13,3.83.13,3.58,0,7.2-.26,10.86-.77,3.66-.51,7.2-1.32,10.61-2.43.08-1.53.15-3.07.19-4.6s.06-3.02.06-4.47l-3.32-.13c-.77,0-2.15.02-4.15.06s-4.28.13-6.84.26c-2.56.13-5.22.34-7.99.64s-5.3.7-7.61,1.21-4.2,1.17-5.69,1.98-2.24,1.77-2.24,2.88h.02Z"/>
    <path d="M585.96,111.41c1.41-2.6,2.11-5.22,2.11-7.86,0-2.98-1-5.43-3-7.35-2-1.92-4.41-3.43-7.22-4.54s-5.77-1.87-8.88-2.3c-3.11-.43-5.82-.64-8.12-.64-5.54,0-11.14,1.02-16.81,3.07s-10.8,4.9-15.4,8.56c-4.6,3.66-8.37,8.01-11.31,13.04s-4.41,10.53-4.41,16.49c0,3.58.66,6.73,1.98,9.46,1.32,2.73,3.11,5.07,5.37,7.03,2.26,1.96,4.84,3.62,7.73,4.99,2.9,1.36,5.94,2.43,9.14,3.2s6.41,1.32,9.65,1.66c3.24.34,6.26.51,9.08.51,6.99,0,13.93-.6,20.83-1.79,6.9-1.19,13.76-2.73,20.58-4.6l4.99,13.29c-3.66,1.19-7.52,2.22-11.57,3.07s-8.14,1.53-12.27,2.05c-4.13.51-8.27.89-12.4,1.15s-8.12.38-11.95.38-7.95-.26-12.59-.77c-4.65-.51-9.31-1.34-14-2.49-4.69-1.15-9.27-2.66-13.74-4.54-4.47-1.87-8.46-4.22-11.95-7.03-3.5-2.81-6.29-6.09-8.37-9.84-2.09-3.75-3.13-8.05-3.13-12.91,0-5.88,1.13-11.4,3.39-16.55,2.26-5.16,5.26-9.84,9.01-14.06s8.14-7.97,13.17-11.25c5.03-3.28,10.31-6.05,15.85-8.31s11.16-3.96,16.87-5.11,11.2-1.73,16.49-1.73c4.94,0,9.99.38,15.15,1.15,5.15.77,9.84,2.24,14.06,4.41s7.67,5.16,10.35,8.95,4.03,8.76,4.03,14.89c0,2.22-.17,4.43-.51,6.65s-.85,4.39-1.53,6.52h-24.93c1.45-1.96,2.88-4.24,4.28-6.84h-.02Z"/>
    <path d="M633.3,121.82c2.05-1.7,4.41-3.32,7.09-4.86s5.5-2.88,8.44-4.03,5.92-2.07,8.95-2.75c3.02-.68,5.86-1.02,8.5-1.02v10.99c-2.73,0-5.75.6-9.08,1.79-3.32,1.19-6.58,2.73-9.78,4.6-3.2,1.88-6.07,4.01-8.63,6.39-2.56,2.39-4.43,4.82-5.62,7.29,0,.6.02,1.71.06,3.32.04,1.62.08,3.49.13,5.62.04,2.13.11,4.37.19,6.71.08,2.34.21,4.54.38,6.58.17,2.05.34,3.79.51,5.24.17,1.45.38,2.34.64,2.68h-20.71c.34-.17.64-1.09.89-2.75.26-1.66.45-3.68.58-6.07.13-2.38.26-4.96.38-7.73.13-2.77.21-5.43.26-7.99.04-2.56.06-4.77.06-6.65v-8.56c0-2.47-.04-5.07-.13-7.8s-.21-5.26-.38-7.61c-.17-2.34-.43-3.77-.77-4.28h18.92c-.17.51-.3,1.26-.38,2.24-.09.98-.17,2.03-.26,3.13-.09,1.11-.15,2.17-.19,3.2-.04,1.02-.06,1.79-.06,2.3v.02Z"/>
    <path d="M744.45,111.98c-.3,1.96-.58,4.28-.83,6.97-.26,2.68-.47,5.6-.64,8.76-.17,3.15-.32,6.16-.45,9.01-.13,2.86-.21,5.41-.26,7.67-.04,2.26-.06,3.9-.06,4.92v4.54c0,2.17.11,4.41.32,6.71s.51,4.39.89,6.26c.38,1.88.96,2.98,1.73,3.32l-22.5-.13.51-6.14c-3.24,2.3-6.77,4.2-10.61,5.69-3.83,1.49-7.76,2.24-11.76,2.24s-7.86-.49-11.57-1.47-6.97-2.49-9.78-4.54-5.07-4.67-6.77-7.86c-1.71-3.2-2.56-7.05-2.56-11.57,0-5.71.28-11.38.83-17s.83-11.29.83-17c0-.94-.02-1.87-.06-2.81s-.15-1.87-.32-2.81h21.6c-.85,1.45-1.49,3.75-1.92,6.9s-.75,6.52-.96,10.1-.34,7.05-.38,10.42-.06,5.99-.06,7.86c0,3.24.26,5.92.77,8.05s1.38,3.83,2.62,5.11c1.23,1.28,2.92,2.17,5.05,2.68s4.81.77,8.05.77c1.79,0,3.52-.32,5.18-.96s3.26-1.47,4.79-2.49,2.94-2.17,4.22-3.45,2.43-2.56,3.45-3.83c.17-3.75.3-7.46.38-11.12.08-3.66.13-7.37.13-11.12v-3.77c0-1.75-.04-3.56-.13-5.43s-.24-3.6-.45-5.18c-.21-1.58-.49-2.62-.83-3.13h22.5c-.34.6-.66,1.88-.96,3.83h.01Z"/>
    <path d="M825.75,121.06c-1.71.68-3.86,1.92-6.45,3.71-2.6,1.79-5.41,3.9-8.44,6.33-3.03,2.43-6.16,5.05-9.39,7.86-3.24,2.81-6.33,5.56-9.27,8.24-2.94,2.68-5.62,5.2-8.05,7.54s-4.33,4.24-5.69,5.69c10.48.26,20.92.38,31.32.38h3.77c1.49,0,3.02-.02,4.6-.06,1.58-.04,3.07-.13,4.47-.26,1.41-.13,2.58-.32,3.52-.58l-.51,11.63c-1.88-.43-3.77-.62-5.69-.58s-3.86.02-5.82-.06c-3.75-.09-7.46-.13-11.12-.13h-22.75c-2.64,0-5.41.02-8.31.06s-5.6.11-8.12.19c-2.51.08-4.69.21-6.52.38s-3,.34-3.52.51l-.38-12.91.77.13-.26-.13c.94-.34,2.56-1.36,4.86-3.07,2.3-1.7,4.92-3.79,7.86-6.26s6.09-5.18,9.46-8.12,6.56-5.77,9.59-8.5c3.02-2.73,5.73-5.22,8.12-7.48,2.38-2.26,4.13-3.98,5.24-5.18h-11.5c-3.75,0-7.46.02-11.12.06s-7.33.11-10.99.19h-5.88c-1.96,0-3.88.21-5.75.64l-.38-11.63c.85.26,2,.43,3.45.51,1.45.09,2.96.15,4.54.19,1.58.04,3.11.06,4.6.06h3.64c7.58,0,15.12-.06,22.62-.19s15-.36,22.5-.7c1.87-.08,3.79-.13,5.75-.13s3.83-.21,5.62-.64l-.38,12.27v.04Z"/>
  </g>
  <g>
    <path d="M1171.39,76.06c-1.02.6-2.39,2.22-4.09,4.86-1.71,2.64-3.62,5.94-5.75,9.91-2.13,3.96-4.41,8.44-6.84,13.42-2.43,4.99-4.88,10.12-7.35,15.4s-4.9,10.57-7.29,15.85-4.58,10.21-6.58,14.76c-2,4.56-3.75,8.61-5.24,12.14-1.49,3.54-2.62,6.2-3.39,7.99h-22.24c-2.9-8.78-5.86-17.47-8.88-26.08-3.03-8.61-6.16-17.26-9.39-25.95-3.41,8.61-6.63,17.24-9.65,25.88-3.03,8.65-5.94,17.36-8.76,26.14h-22.24c-.77-1.79-1.92-4.45-3.45-7.99-1.53-3.54-3.3-7.58-5.3-12.14s-4.18-9.46-6.52-14.7c-2.34-5.24-4.75-10.5-7.22-15.79-2.47-5.28-4.92-10.42-7.35-15.4-2.43-4.99-4.71-9.46-6.84-13.42-2.13-3.96-4.05-7.26-5.75-9.91-1.7-2.64-3.07-4.26-4.09-4.86,4.69,0,9.35.02,14,.06,4.64.04,9.31.02,14-.06-.26.17-.41.45-.45.83-.04.38-.06.7-.06.96,0,1.88.58,4.67,1.73,8.37,1.15,3.71,2.64,7.88,4.47,12.53s3.88,9.54,6.14,14.7,4.47,10.08,6.65,14.76c2.17,4.69,4.17,8.93,6.01,12.72,1.83,3.79,3.26,6.67,4.28,8.63,3.83-9.29,7.52-18.62,11.06-27.99,3.54-9.37,6.71-18.92,9.52-28.63-.43-.94-1.02-2.26-1.79-3.96-.77-1.7-1.6-3.41-2.49-5.11s-1.85-3.3-2.88-4.79c-1.02-1.49-2-2.53-2.94-3.13h28.25c-.43.34-.66.75-.7,1.21-.04.47-.06.92-.06,1.34,0,2.05.45,4.9,1.34,8.56s2.02,7.71,3.39,12.14c1.36,4.43,2.92,9.08,4.67,13.93,1.75,4.86,3.47,9.54,5.18,14.06,1.7,4.52,3.28,8.65,4.73,12.4s2.64,6.69,3.58,8.82c.94-1.96,2.32-4.79,4.15-8.5,1.83-3.71,3.81-7.88,5.94-12.53,2.13-4.64,4.32-9.5,6.58-14.57s4.3-9.88,6.14-14.44c1.83-4.56,3.34-8.67,4.54-12.33,1.19-3.66,1.79-6.39,1.79-8.18,0-.34-.02-.7-.06-1.09-.04-.38-.24-.66-.58-.83,9.37.17,18.75.17,28.12,0h-.04Z"/>
    <path d="M1202.55,171.93c1.45-.43,2.34-1.39,2.68-2.88.34-1.49.55-2.83.64-4.03-3.83,1.19-7.71,2.09-11.63,2.68-3.92.6-7.84.89-11.76.89-2.56,0-5.6-.21-9.14-.64s-6.9-1.23-10.1-2.43c-3.2-1.19-5.92-2.85-8.18-4.99-2.26-2.13-3.39-4.94-3.39-8.44,0-2.98,1.09-5.54,3.26-7.67s4.96-3.9,8.37-5.3c3.41-1.41,7.24-2.49,11.5-3.26,4.26-.77,8.44-1.36,12.53-1.79,4.09-.43,7.92-.68,11.5-.77,3.58-.08,6.39-.17,8.44-.26,0-1.19.02-2.34.06-3.45s.06-2.26.06-3.45c0-2.13-.38-3.98-1.15-5.56s-1.81-2.88-3.13-3.9c-1.32-1.02-2.88-1.77-4.67-2.24s-3.66-.7-5.62-.7-3.9.26-6.07.77-4.24,1.28-6.2,2.3-3.66,2.32-5.11,3.9c-1.45,1.58-2.34,3.39-2.68,5.43l-16.11-2.17c1.53-3.92,3.66-7.24,6.39-9.97s5.82-4.94,9.27-6.65c3.45-1.7,7.14-2.96,11.06-3.77s7.84-1.21,11.76-1.21,7.39.47,10.93,1.41,6.69,2.36,9.46,4.28,4.99,4.37,6.65,7.35c1.66,2.98,2.49,6.52,2.49,10.61,0,4.35-.06,8.67-.19,12.97-.13,4.3-.19,8.63-.19,12.97v4.15c0,2,.06,4.09.19,6.26.13,2.17.32,4.18.58,6.01s.64,3,1.15,3.52h-23.65v.03ZM1169.06,152.12c0,1.28.68,2.26,2.05,2.94,1.36.68,2.96,1.21,4.79,1.6,1.83.38,3.64.62,5.43.7,1.79.09,3.07.13,3.83.13,3.58,0,7.2-.26,10.86-.77,3.66-.51,7.2-1.32,10.61-2.43.08-1.53.15-3.07.19-4.6.04-1.53.06-3.02.06-4.47l-3.32-.13c-.77,0-2.15.02-4.15.06s-4.28.13-6.84.26c-2.56.13-5.22.34-7.99.64s-5.3.7-7.61,1.21-4.2,1.17-5.69,1.98-2.24,1.77-2.24,2.88h.02Z"/>
    <path d="M1237.92,165.35c.43-3.45.79-7.58,1.09-12.4.3-4.81.58-10.01.83-15.59.26-5.58.49-10.89.7-15.91.21-5.03.36-9.46.45-13.29.08-3.83.13-6.43.13-7.8v-4.67c0-2.34-.06-4.84-.19-7.48-.13-2.64-.36-5.05-.7-7.22s-.85-3.47-1.53-3.9l24.41.26c-.43.09-.75.6-.96,1.53-.21.94-.36,1.58-.45,1.92-.94,4.26-1.53,8.59-1.79,12.97-.26,4.39-.51,8.76-.77,13.1-.43,7.24-.75,14.4-.96,21.47s-.32,14.23-.32,21.47v4.28c0,2.17.04,4.45.13,6.84.08,2.39.21,4.62.38,6.71.17,2.09.47,3.39.89,3.9h-22.62c.43-.68.85-2.75,1.28-6.2h0Z"/>
    <path d="M1308.66,137.93c4.6,4.01,9.22,7.95,13.87,11.82,4.64,3.88,9.31,7.78,14,11.7,2.05,1.71,4.13,3.49,6.26,5.37,2.13,1.88,4.39,3.41,6.77,4.6h-23.14c-.26-.43-1.07-1.26-2.43-2.49-1.36-1.23-3-2.62-4.92-4.15s-3.98-3.2-6.2-4.99c-2.22-1.79-4.35-3.49-6.39-5.11-2.05-1.62-3.9-3.05-5.56-4.28s-2.88-2.15-3.64-2.75l-4.6,3.96v4.28c0,1.92.04,3.9.13,5.94.08,2.05.23,3.96.45,5.75.21,1.79.49,2.98.83,3.58h-22.62c.34-.6.68-1.96,1.02-4.09.34-2.13.64-4.77.89-7.92.26-3.15.49-6.67.7-10.55s.43-7.86.64-11.95.38-8.16.51-12.21.26-7.8.38-11.25c.13-3.45.21-6.5.26-9.14.04-2.64.06-4.6.06-5.88v-4.54c0-2.17-.09-4.43-.26-6.77-.17-2.34-.43-4.49-.77-6.45-.34-1.96-.81-3.15-1.41-3.58l24.41.13c-.68.43-1.28,1.92-1.79,4.47s-.96,5.69-1.34,9.4c-.38,3.71-.7,7.75-.96,12.14s-.45,8.59-.58,12.59c-.13,4.01-.24,7.59-.32,10.74-.09,3.15-.13,5.33-.13,6.52,5.03-4.17,10.12-8.31,15.27-12.4,5.16-4.09,10.12-8.39,14.89-12.91h22.37c-2.22,1.19-4.28,2.68-6.2,4.47s-3.86,3.45-5.82,4.99c-4.18,3.58-8.31,7.07-12.4,10.48-4.09,3.41-8.18,6.9-12.27,10.48h.04Z"/>
    <path d="M1352.38,110.57l22.5.13c-.43.09-.75.45-.96,1.09s-.41,1.13-.58,1.47c-.6,2.13-1.04,4.71-1.34,7.73-.3,3.03-.51,6.18-.64,9.46-.13,3.28-.21,6.45-.26,9.52-.04,3.07-.06,5.75-.06,8.05v4.67c0,2.34.06,4.84.19,7.48.13,2.64.32,5.05.58,7.22s.64,3.52,1.15,4.03h-22.62c.43-.6.85-2,1.28-4.22.43-2.21.79-4.86,1.09-7.92.3-3.07.58-6.37.83-9.91.26-3.54.49-6.9.7-10.1.21-3.2.36-6.05.45-8.56.08-2.51.13-4.24.13-5.18v-3.07c0-1.53-.09-3.13-.26-4.79-.17-1.66-.43-3.2-.77-4.6-.34-1.41-.81-2.24-1.41-2.49h0ZM1363.5,79.64c1.11,0,2.34.17,3.71.51,1.36.34,2.62.83,3.77,1.47s2.11,1.49,2.88,2.56c.77,1.07,1.15,2.28,1.15,3.64s-.38,2.56-1.15,3.58-1.73,1.85-2.88,2.49-2.41,1.13-3.77,1.47-2.6.51-3.71.51c-1.19,0-2.45-.17-3.77-.51-1.32-.34-2.56-.83-3.71-1.47-1.15-.64-2.11-1.47-2.88-2.49s-1.15-2.21-1.15-3.58.38-2.58,1.15-3.64,1.73-1.92,2.88-2.56,2.38-1.13,3.71-1.47c1.32-.34,2.58-.51,3.77-.51Z"/>
    <path d="M1460.5,131.03c0,5.88-.28,11.72-.83,17.51-.56,5.8-.83,11.63-.83,17.51,0,1.96.13,3.88.38,5.75h-22.37c.85-1.36,1.49-3.64,1.92-6.84s.74-6.6.96-10.23c.21-3.62.34-7.11.38-10.48s.06-5.94.06-7.73c0-5.2-1.28-9.27-3.83-12.21-2.56-2.94-6.52-4.41-11.89-4.41-1.79,0-3.52.32-5.18.96s-3.24,1.47-4.73,2.49-2.9,2.17-4.22,3.45-2.49,2.56-3.51,3.83c-.26,7.41-.38,14.83-.38,22.24v3.51c0,1.75.04,3.6.13,5.56.08,1.96.21,3.77.38,5.43.17,1.66.47,2.66.9,3h-22.62c.34-.51.68-1.77,1.02-3.77s.64-4.39.9-7.16.47-5.73.64-8.88c.17-3.15.32-6.18.45-9.08.13-2.9.21-5.45.26-7.67.04-2.21.06-3.75.06-4.6,0-.68-.02-2.11-.06-4.28s-.15-4.43-.32-6.77c-.17-2.34-.45-4.49-.83-6.46-.38-1.96-.96-3.07-1.73-3.32l22.37.13-.38,6.14c3.15-2.3,6.67-4.2,10.55-5.69s7.82-2.24,11.82-2.24,7.73.41,11.44,1.21c3.71.81,6.97,2.17,9.78,4.09s5.07,4.41,6.77,7.48c1.7,3.07,2.56,6.9,2.56,11.5l-.02.03Z"/>
    <path d="M1549.48,107.51c-.43.51-.79,2.28-1.09,5.3-.3,3.03-.56,6.73-.77,11.12s-.38,9.12-.51,14.19-.24,9.93-.32,14.57c-.09,4.65-.15,8.74-.19,12.27-.04,3.54-.06-1.96-.06-.77,0,7.67-3.41,13.72-10.23,18.15s-16.49,6.86-29.02,7.29c-3.58.17-7.16.23-10.74.19s-7.16-.02-10.74.06v-14.32c1.28.6,2.85,1.06,4.73,1.41,1.87.34,3.83.62,5.88.83s4.03.34,5.94.38c1.92.04,3.56.06,4.92.06,4.69,0,8.41-.47,11.18-1.41s5.17-2.48,6.72-4.41,2.15-2.18,2.74-5.36.33-1.23.83-6.14c-3.5,2.73-7.41,4.82-11.76,6.26-4.35,1.45-8.69,2.17-13.04,2.17s-8.63-.64-12.85-1.92-7.99-3.17-11.31-5.69c-3.32-2.51-6.03-5.62-8.12-9.33s-3.13-7.95-3.13-12.72,1.3-8.99,3.9-12.91,5.88-7.24,9.84-9.97,8.33-4.86,13.1-6.39,9.29-2.3,13.55-2.3c3.49,0,6.9.43,10.23,1.28,3.32.85,6.43,2.26,9.33,4.22-.09-.68-.15-1.7-.19-3.07-.04-1.36-.28-2.38-.7-3.07h21.86l.02.03ZM1507.05,157.87c2.13,0,4.39-.36,6.77-1.09,2.38-.72,4.6-1.75,6.65-3.07s3.77-2.94,5.18-4.86,2.24-4.07,2.49-6.46c.17-1.02.26-2.11.26-3.26v-3.39c0-2.47-.6-4.64-1.79-6.52-1.19-1.87-2.73-3.45-4.6-4.73-1.88-1.28-3.96-2.24-6.26-2.88s-4.52-.96-6.65-.96c-2.9,0-5.77.41-8.63,1.21-2.86.81-5.43,2.03-7.73,3.64-2.3,1.62-4.18,3.66-5.62,6.14-1.45,2.47-2.17,5.33-2.17,8.56s.64,5.71,1.92,7.92c1.28,2.22,2.98,4.05,5.11,5.5s4.49,2.51,7.09,3.2c2.6.68,5.26,1.02,7.99,1.02v.03Z"/>
    <path d="M1670.93,88.97c-1.92-.08-4.22-.15-6.9-.19-2.68-.04-5.58-.08-8.69-.13-3.11-.04-6.05-.06-8.82-.06h-11.44c-.68,6.39-1.04,12.78-1.09,19.17-.04,6.39-.06,12.78-.06,19.17,0,4.09-.04,8.14-.13,12.14-.09,4.01-.13,8.05-.13,12.14v3.9c0,1.92.04,3.94.13,6.07.08,2.13.28,4.09.58,5.88.3,1.79.7,2.9,1.21,3.32h-22.37c.59-.51,1.04-2.15,1.34-4.92.3-2.77.55-6.11.77-10.03.21-3.92.34-8.18.38-12.78.04-4.6.06-8.99.06-13.17s-.02-7.86-.06-11.06-.06-5.43-.06-6.71c0-3.83-.02-7.67-.06-11.5s-.19-7.67-.45-11.5c-5.54,0-11.04.02-16.49.06s-10.95.11-16.49.19c-.85,0-1.94.02-3.26.06-1.32.04-2.7.06-4.15.06s-2.83.04-4.15.13c-1.32.09-2.36.21-3.13.38l-.38-13.29,107.37-.64-.13,13.68c-.34-.17-1.47-.3-3.39-.38h0Z"/>
    <path d="M1696.28,108.79c4.69,0,9.63.66,14.83,1.98,5.2,1.32,9.93,3.32,14.19,6.01,4.26,2.68,7.8,6.07,10.61,10.16,2.81,4.09,4.22,8.91,4.22,14.44,0,3.66-.68,6.97-2.05,9.91-1.36,2.94-3.18,5.54-5.43,7.8s-4.88,4.22-7.86,5.88-6.12,3.03-9.39,4.09c-3.28,1.07-6.63,1.85-10.03,2.36-3.41.51-6.6.77-9.59.77-4.86,0-9.84-.56-14.96-1.66s-9.78-2.9-14-5.37-7.67-5.69-10.35-9.65c-2.68-3.96-4.03-8.84-4.03-14.64s1.38-10.59,4.15-14.64,6.28-7.37,10.55-9.97c4.26-2.6,8.97-4.49,14.12-5.69,5.16-1.19,10.16-1.79,15.02-1.79h0ZM1671.61,140.74c0,3.32.75,6.14,2.24,8.44s3.41,4.18,5.75,5.62c2.34,1.45,4.96,2.49,7.86,3.13s5.75.96,8.56.96c2.64,0,5.41-.34,8.31-1.02,2.9-.68,5.58-1.75,8.05-3.2,2.47-1.45,4.52-3.3,6.14-5.56s2.43-4.96,2.43-8.12-.77-5.9-2.3-8.24c-1.53-2.34-3.49-4.3-5.88-5.88s-5.05-2.75-7.99-3.52-5.77-1.15-8.5-1.15-5.67.36-8.56,1.09c-2.9.72-5.54,1.83-7.92,3.32-2.39,1.49-4.35,3.41-5.88,5.75s-2.3,5.14-2.3,8.37h-.01Z"/>
    <path d="M1823.5,111.98c-.3,1.96-.58,4.28-.83,6.97-.26,2.68-.47,5.6-.64,8.76-.17,3.15-.32,6.16-.45,9.01-.13,2.86-.21,5.41-.26,7.67-.04,2.26-.06,3.9-.06,4.92v4.54c0,2.17.11,4.41.32,6.71s.51,4.39.89,6.26c.38,1.88.96,2.98,1.73,3.32l-22.5-.13.51-6.14c-3.24,2.3-6.77,4.2-10.61,5.69-3.83,1.49-7.75,2.24-11.76,2.24s-7.86-.49-11.57-1.47-6.97-2.49-9.78-4.54-5.07-4.67-6.77-7.86c-1.71-3.2-2.56-7.05-2.56-11.57,0-5.71.28-11.38.83-17,.55-5.62.83-11.29.83-17,0-.94-.02-1.87-.06-2.81s-.15-1.87-.32-2.81h21.6c-.85,1.45-1.49,3.75-1.92,6.9s-.75,6.52-.96,10.1-.34,7.05-.38,10.42-.06,5.99-.06,7.86c0,3.24.26,5.92.77,8.05s1.38,3.83,2.62,5.11c1.23,1.28,2.92,2.17,5.05,2.68s4.81.77,8.05.77c1.79,0,3.52-.32,5.18-.96s3.26-1.47,4.79-2.49,2.94-2.17,4.22-3.45,2.43-2.56,3.45-3.83c.17-3.75.3-7.46.38-11.12.08-3.66.13-7.37.13-11.12v-3.77c0-1.75-.04-3.56-.13-5.43s-.24-3.6-.45-5.18c-.21-1.58-.49-2.62-.83-3.13h22.5c-.34.6-.66,1.88-.96,3.83h.01Z"/>
    <path d="M1854.07,121.82c2.05-1.7,4.41-3.32,7.09-4.86s5.5-2.88,8.44-4.03,5.92-2.07,8.95-2.75c3.02-.68,5.86-1.02,8.5-1.02v10.99c-2.73,0-5.75.6-9.08,1.79-3.32,1.19-6.58,2.73-9.78,4.6-3.2,1.88-6.07,4.01-8.63,6.39-2.56,2.39-4.43,4.82-5.62,7.29,0,.6.02,1.71.06,3.32.04,1.62.08,3.49.13,5.62.04,2.13.11,4.37.19,6.71.08,2.34.21,4.54.38,6.58.17,2.05.34,3.79.51,5.24.17,1.45.38,2.34.64,2.68h-20.71c.34-.17.64-1.09.89-2.75.26-1.66.45-3.68.58-6.07.13-2.38.26-4.96.38-7.73.13-2.77.21-5.43.26-7.99.04-2.56.06-4.77.06-6.65v-8.56c0-2.47-.04-5.07-.13-7.8s-.21-5.26-.38-7.61c-.17-2.34-.43-3.77-.77-4.28h18.92c-.17.51-.3,1.26-.38,2.24-.09.98-.17,2.03-.26,3.13-.09,1.11-.15,2.17-.19,3.2-.04,1.02-.06,1.79-.06,2.3v.02Z"/>
    <path d="M1942.79,128.15c.34-1.58.51-3.17.51-4.79,0-3.58-.96-6.24-2.88-7.99s-4.67-2.62-8.25-2.62c-2.05,0-4.45.24-7.22.7-2.77.47-5.39,1.26-7.86,2.36-2.47,1.11-4.58,2.56-6.33,4.35-1.75,1.79-2.62,4.01-2.62,6.65,0,1.96.96,3.6,2.88,4.92,1.92,1.32,4.15,2.39,6.71,3.2,2.56.81,5.13,1.43,7.73,1.85,2.6.43,4.58.77,5.94,1.02,2.13.43,4.84.96,8.12,1.6s6.45,1.58,9.52,2.81c3.07,1.24,5.71,2.77,7.92,4.6,2.21,1.83,3.32,4.15,3.32,6.97,0,3.15-1.24,5.8-3.71,7.92-2.47,2.13-5.43,3.83-8.88,5.11s-7.05,2.19-10.8,2.75-6.86.83-9.33.83c-5.11,0-10.18-.36-15.21-1.09-5.03-.72-9.97-1.94-14.83-3.64-.6-.26-1.58-.66-2.94-1.21s-2.79-1.15-4.28-1.79-2.88-1.21-4.15-1.73-2.09-.77-2.43-.77c.17-.08.77-.6,1.79-1.53,1.02-.94,2.11-1.98,3.26-3.13,1.15-1.15,2.19-2.24,3.13-3.26.94-1.02,1.45-1.66,1.53-1.92,4.35,3.24,9.18,5.62,14.51,7.16,5.32,1.53,10.67,2.3,16.04,2.3.6,0,1.75-.06,3.45-.19s3.47-.36,5.3-.7c1.83-.34,3.47-.81,4.92-1.41,1.45-.6,2.17-1.36,2.17-2.3,0-1.36-1.19-2.47-3.58-3.32s-5.39-1.66-9.01-2.43c-3.62-.77-7.52-1.62-11.7-2.56-4.18-.94-8.07-2.15-11.7-3.64-3.62-1.49-6.63-3.34-9.01-5.56-2.39-2.21-3.58-5.07-3.58-8.56,0-5.11,1.38-9.48,4.15-13.1,2.77-3.62,6.24-6.56,10.42-8.82,4.17-2.26,8.69-3.9,13.55-4.92s9.41-1.53,13.68-1.53c3.49,0,6.86.28,10.1.83,3.24.56,6.09,1.56,8.56,3,2.47,1.45,4.45,3.45,5.94,6.01s2.24,5.88,2.24,9.97c0,2.05-.15,4.09-.45,6.14-.3,2.05-.66,4.05-1.09,6.01h-16.87c.51-1.45.94-2.96,1.28-4.54h.04Z"/>
  </g>
</svg>